Coordinates
version=1
nRows=7
nColumns=33
inDegrees=yes

Units are S.I. units (second, meters, Newtons, ...)
Angles are in degrees.

endheader
time	ground_thorax_rot_x	ground_thorax_rot_y	ground_thorax_rot_z	ground_thorax_tx	ground_thorax_ty	ground_thorax_tz	clav_prot_r	clav_elev_r	scapula_abduction_r	scapula_elevation_r	scapula_upward_rot_r	scapula_winging_r	shoulder_elv_r	plane_of_elev_r	axial_rot_r	elbow_flexion_r	pro_sup_r	wrist_flex_r	wrist_dev_r	clav_prot_l	clav_elev_l	scapula_abduction_l	scapula_elevation_l	scapula_upward_rot_l	scapula_winging_l	shoulder_elv_l	plane_of_elev_l	axial_rot_l	elbow_flexion_l	pro_sup_l	wrist_flex_l	wrist_dev_l
      5.16000000	      2.06140474	      2.30441031	     13.47721016	     -0.12619213	      1.03654982	      0.02804369	      3.08616439	     15.06919984	     15.39032040	      9.89956075	     24.40960419	     -9.90680535	      3.55222543	    -71.76386543	     52.04214204	     48.88302368	    -23.13781915	     70.00000021	    -24.99999983	     10.43192899	     -3.45885591	    -15.47279387	    -22.49282943	    -43.89209265	     -1.23520894	     62.04398198	    -39.37972029	     -4.07598629	     68.94449815	     28.78355636	     -0.55338958	    -24.99999983
      5.17000000	      1.98163566	      2.85439571	     13.23561601	     -0.12605180	      1.03717301	      0.02840168	      1.77257442	     14.57470277	     14.00922882	      9.14608971	     25.50510732	     -9.71817217	      4.28593392	    -72.35184797	     53.53573334	     48.21651456	    -20.61334919	     70.00000021	    -24.99999983	     10.77366640	     -3.71819368	    -16.11597920	    -22.26013234	    -43.97806622	     -0.93597942	     61.82439398	    -38.99854952	     -4.30979568	     68.01053140	     26.17062382	     -3.22658875	    -24.99999983
      5.18000000	      1.90091228	      2.91539071	     13.38161981	     -0.12641065	      1.03669543	      0.02865277	      1.77839679	     14.50163960	     13.49313333	      9.28674475	     24.90158573	     -9.48777826	      4.93357034	    -71.77169455	     54.11051457	     47.14457534	    -17.26061839	     70.00000021	    -24.99999983	     10.84308344	     -3.59035927	    -16.28626159	    -22.45083890	    -44.13235853	     -0.90445887	     61.59559716	    -38.75996485	     -4.11096688	     67.72178531	     26.09653765	     -3.93761631	    -24.99999983
      5.19000000	      1.54319756	      3.18303348	     13.46779652	     -0.12666915	      1.03684186	      0.02859317	      1.71520230	     13.83929759	     13.40238555	      8.81468740	     24.60491888	     -9.42956396	      4.63175918	    -71.25373357	     53.85323669	     49.36327962	    -28.07372627	     70.00000021	    -24.99999983	     11.07771449	     -3.74530484	    -16.77533177	    -22.38172733	    -44.34108430	     -0.70425749	     61.76561427	    -38.94905131	     -3.95105420	     67.97419958	     26.09784197	     -4.50627098	    -24.99999983
      5.20000000	      1.71515459	      3.23811882	     13.40627094	     -0.12668037	      1.03679237	      0.02884202	      1.58113314	     13.95729805	     13.23183976	      8.86598043	     24.76890385	     -9.40870870	      4.61100477	    -71.02893728	     53.86853994	     49.20912463	    -28.23551691	     70.00000021	    -24.99999983	     10.97192882	     -3.83327428	    -16.55402470	    -22.25449005	    -44.23255909	     -0.77240307	     61.56303812	    -38.52354983	     -3.74777801	     67.41091049	     26.13604903	     -4.56823702	    -24.99999983
      5.21000000	      1.70326926	      3.27354422	     13.50136104	     -0.12687464	      1.03637592	      0.02897621	      1.57125961	     13.93321890	     13.22775959	      8.84400571	     24.77372010	     -9.41065309	      4.59038184	    -70.98048762	     53.87428688	     49.24554564	    -28.23528271	     70.00000021	    -24.99999983	     10.95484707	     -3.86728237	    -16.51992086	    -22.21523312	    -44.21637710	     -0.77877836	     61.55302426	    -38.46860518	     -3.72786446	     67.41879906	     26.13464484	     -4.57604503	    -24.99999983
      5.22000000	      1.71116527	      3.36962190	     13.58785679	     -0.12685668	      1.03596928	      0.02921279	      1.55964221	     13.89863091	     13.17349230	      8.83164920	     24.72259222	     -9.38765440	      4.54307098	    -70.93822731	     53.88601207	     49.30233027	    -28.24643336	     70.00000021	    -24.99999983	     10.92034916	     -3.92035019	    -16.44593663	    -22.14893666	    -44.17734831	     -0.80054620	     61.56162307	    -38.39687436	     -3.62582698	     67.36890730	     26.13299790	     -4.60302740	    -24.99999983
